<svg width="43" height="43" viewBox="0 0 43 43" fill="none" xmlns="http://www.w3.org/2000/svg">
<g filter="url(#filter0_d_541_408)">
<path d="M21.5 35C31.165 35 39 27.165 39 17.5C39 7.83502 31.165 0 21.5 0C11.835 0 4 7.83502 4 17.5C4 27.165 11.835 35 21.5 35Z" fill="url(#paint0_linear_541_408)"/>
<path d="M18.2119 16.8902C20.0898 16.8902 21.6121 15.3679 21.6121 13.49C21.6121 11.6122 20.0898 10.0898 18.2119 10.0898C16.334 10.0898 14.8117 11.6122 14.8117 13.49C14.8117 15.3679 16.334 16.8902 18.2119 16.8902Z" fill="white"/>
<path d="M14.8862 18.2507H21.5376C22.3217 18.2507 23.0737 18.5622 23.6282 19.1166C24.1826 19.6711 24.4941 20.4231 24.4941 21.2072V23.4822C24.4941 23.8619 24.3433 24.226 24.0749 24.4944C23.8064 24.7629 23.4423 24.9137 23.0627 24.9137H13.3611C12.9815 24.9137 12.6174 24.7629 12.3489 24.4944C12.0805 24.226 11.9297 23.8619 11.9297 23.4822V21.2065C11.9297 20.4224 12.2412 19.6704 12.7956 19.116C13.3501 18.5615 14.1021 18.25 14.8862 18.25V18.2507Z" fill="white"/>
<path d="M29.7715 13.785H28.8582V12.873C28.8582 12.5286 28.7214 12.1982 28.4778 11.9546C28.2342 11.7111 27.9038 11.5742 27.5594 11.5742C27.2149 11.5742 26.8845 11.7111 26.641 11.9546C26.3974 12.1982 26.2605 12.5286 26.2605 12.873V13.785H25.3459C25.0014 13.785 24.6711 13.9218 24.4275 14.1654C24.1839 14.409 24.0471 14.7393 24.0471 15.0838C24.0471 15.4283 24.1839 15.7586 24.4275 16.0022C24.6711 16.2458 25.0014 16.3826 25.3459 16.3826H26.2571V17.2952C26.2571 17.6397 26.394 17.97 26.6375 18.2136C26.8811 18.4572 27.2115 18.594 27.5559 18.594C27.9004 18.594 28.2308 18.4572 28.4744 18.2136C28.7179 17.97 28.8548 17.6397 28.8548 17.2952V16.3854H29.7715C30.1159 16.3854 30.4463 16.2485 30.6899 16.0049C30.9335 15.7614 31.0703 15.431 31.0703 15.0865C31.0707 14.9157 31.0373 14.7465 30.9722 14.5886C30.9071 14.4307 30.8115 14.2872 30.6908 14.1663C30.5702 14.0454 30.4269 13.9495 30.2691 13.8841C30.1114 13.8186 29.9423 13.785 29.7715 13.785Z" fill="white"/>
</g>
<defs>
<filter id="filter0_d_541_408" x="0" y="0" width="43" height="43" filterUnits="userSpaceOnUse" color-interpolation-filters="sRGB">
<feFlood flood-opacity="0" result="BackgroundImageFix"/>
<feColorMatrix in="SourceAlpha" type="matrix" values="0 0 0 0 0 0 0 0 0 0 0 0 0 0 0 0 0 0 127 0" result="hardAlpha"/>
<feOffset dy="4"/>
<feGaussianBlur stdDeviation="2"/>
<feComposite in2="hardAlpha" operator="out"/>
<feColorMatrix type="matrix" values="0 0 0 0 0 0 0 0 0 0 0 0 0 0 0 0 0 0 0.25 0"/>
<feBlend mode="normal" in2="BackgroundImageFix" result="effect1_dropShadow_541_408"/>
<feBlend mode="normal" in="SourceGraphic" in2="effect1_dropShadow_541_408" result="shape"/>
</filter>
<linearGradient id="paint0_linear_541_408" x1="21.5" y1="0" x2="21.5" y2="34.7409" gradientUnits="userSpaceOnUse">
<stop stop-color="#FDAE3E"/>
<stop offset="1" stop-color="#FF0749"/>
</linearGradient>
</defs>
</svg>
