<svg width="15" height="16" viewBox="0 0 15 16" fill="none" xmlns="http://www.w3.org/2000/svg">
<path d="M15 10.9286C15 12.0214 13.95 12.8571 12.75 12.8571H2.25C0.975 12.8571 0 12.0214 0 10.9286C0 10.35 0.3 9.83572 0.825 9.45C1.725 8.87143 2.25 7.90714 2.25 6.94286V5.65714C2.325 3.40714 4.275 1.60714 6.75 1.28571C6.75 1.28571 6.75 1.28571 6.75 1.22143V0.642857C6.75 0.257143 7.05 0 7.5 0C7.95 0 8.25 0.257143 8.25 0.642857V1.28571V1.35C10.8 1.60714 12.75 3.47143 12.75 5.72143V7.00714C12.75 7.97143 13.275 8.93571 14.175 9.51429C14.7 9.83571 15 10.35 15 10.9286ZM9.6 14.1429C9.375 14.7214 8.85 15.1071 8.25 15.3C7.05 15.6214 5.775 15.1071 5.4 14.1429H9.6Z" fill="white"/>
</svg>
