<svg width="15" height="15" viewBox="0 0 15 15" fill="none" xmlns="http://www.w3.org/2000/svg">
<path d="M15 1.07143C15 1.66429 14.5813 2.14286 14.0625 2.14286H0.9375C0.41875 2.14286 0 1.66429 0 1.07143C0 0.478571 0.41875 0 0.9375 0H14.0625C14.5813 0 15 0.478571 15 1.07143ZM4.0625 12.8571H0.9375C0.41875 12.8571 0 13.3357 0 13.9286C0 14.5214 0.41875 15 0.9375 15H4.0625C4.58125 15 5 14.5214 5 13.9286C5 13.3357 4.58125 12.8571 4.0625 12.8571ZM9.0625 6.42857H0.9375C0.41875 6.42857 0 6.90714 0 7.5C0 8.09286 0.41875 8.57143 0.9375 8.57143H9.0625C9.58125 8.57143 10 8.09286 10 7.5C10 6.90714 9.58125 6.42857 9.0625 6.42857Z" fill="white"/>
</svg>
